<svg xmlns="http://www.w3.org/2000/svg" viewBox="0 0 1400 900" role="img" aria-labelledby="title desc">
  <title id="title">Mercedes V-Class exterior</title>
  <desc id="desc">Illustration premium du van Mercedes V-Class.</desc>
  <defs>
    <linearGradient id="bg" x1="0" y1="0" x2="1" y2="1">
      <stop offset="0%" stop-color="#101215"/>
      <stop offset="55%" stop-color="#1d2128"/>
      <stop offset="100%" stop-color="#34281f"/>
    </linearGradient>
    <linearGradient id="body" x1="0" y1="0" x2="1" y2="0">
      <stop offset="0%" stop-color="#2e323a"/>
      <stop offset="50%" stop-color="#585c65"/>
      <stop offset="100%" stop-color="#20242b"/>
    </linearGradient>
    <linearGradient id="glass" x1="0" y1="0" x2="1" y2="1">
      <stop offset="0%" stop-color="#d7e5ef" stop-opacity="0.9"/>
      <stop offset="100%" stop-color="#8fa7ba" stop-opacity="0.5"/>
    </linearGradient>
    <radialGradient id="spot" cx="50%" cy="50%" r="60%">
      <stop offset="0%" stop-color="#d8ad88" stop-opacity="0.25"/>
      <stop offset="100%" stop-color="#d8ad88" stop-opacity="0"/>
    </radialGradient>
  </defs>
  <rect width="1400" height="900" rx="40" fill="url(#bg)"/>
  <rect width="1400" height="900" rx="40" fill="url(#spot)"/>
  <g transform="translate(110 190)">
    <rect x="100" y="220" width="980" height="230" rx="52" fill="url(#body)"/>
    <path d="M220 220c34-66 79-98 144-98h329c66 0 115 32 147 98l26 50H204z" fill="url(#body)"/>
    <rect x="304" y="164" width="270" height="116" rx="24" fill="url(#glass)"/>
    <rect x="596" y="164" width="268" height="116" rx="24" fill="url(#glass)"/>
    <rect x="184" y="182" width="98" height="100" rx="18" fill="#20242b"/>
    <rect x="888" y="182" width="104" height="100" rx="18" fill="#20242b"/>
    <circle cx="336" cy="482" r="112" fill="#0b0d10"/>
    <circle cx="336" cy="482" r="70" fill="#5d636d"/>
    <circle cx="852" cy="482" r="112" fill="#0b0d10"/>
    <circle cx="852" cy="482" r="70" fill="#5d636d"/>
    <circle cx="336" cy="482" r="38" fill="#d8ad88"/>
    <circle cx="852" cy="482" r="38" fill="#d8ad88"/>
    <rect x="240" y="312" width="624" height="32" rx="16" fill="#bf8c62" opacity="0.75"/>
    <rect x="245" y="362" width="614" height="20" rx="10" fill="#cfd5db" opacity="0.28"/>
    <rect x="86" y="262" width="42" height="130" rx="16" fill="#0f1115"/>
    <rect x="1020" y="262" width="42" height="130" rx="16" fill="#0f1115"/>
    <path d="M115 351h915" stroke="#d8ad88" stroke-opacity="0.2" stroke-width="8" stroke-linecap="round"/>
  </g>
  <text x="86" y="824" fill="#d8ad88" font-family="Manrope, Arial, sans-serif" font-size="34" letter-spacing="7">V-CLASS CONCIERGE</text>
</svg>
